<svg id="visual" viewBox="0 0 4000 2000" width="4000" height="2000" xmlns="http://www.w3.org/2000/svg" xmlns:xlink="http://www.w3.org/1999/xlink" version="1.1"><rect width="4000" height="2000" fill="#FFD700"></rect><g><g transform="translate(1248 305)"><path d="M0 -263.9L228.5 -132L228.5 132L0 263.9L-228.5 132L-228.5 -132Z" stroke="#6A5ACD" fill="none" stroke-width="2"></path></g><g transform="translate(2842 1276)"><path d="M0 -184L159.3 -92L159.3 92L0 184L-159.3 92L-159.3 -92Z" stroke="#6A5ACD" fill="none" stroke-width="2"></path></g><g transform="translate(32 1135)"><path d="M0 -196L169.7 -98L169.7 98L0 196L-169.7 98L-169.7 -98Z" stroke="#6A5ACD" fill="none" stroke-width="2"></path></g><g transform="translate(3593 900)"><path d="M0 -93L80.5 -46.5L80.5 46.5L0 93L-80.5 46.5L-80.5 -46.5Z" stroke="#6A5ACD" fill="none" stroke-width="2"></path></g><g transform="translate(656 286)"><path d="M0 -155L134.2 -77.5L134.2 77.5L0 155L-134.2 77.5L-134.2 -77.5Z" stroke="#6A5ACD" fill="none" stroke-width="2"></path></g><g transform="translate(1391 1293)"><path d="M0 -141L122.1 -70.5L122.1 70.5L0 141L-122.1 70.5L-122.1 -70.5Z" stroke="#6A5ACD" fill="none" stroke-width="2"></path></g><g transform="translate(1353 1875)"><path d="M0 -144L124.7 -72L124.7 72L0 144L-124.7 72L-124.7 -72Z" stroke="#6A5ACD" fill="none" stroke-width="2"></path></g><g transform="translate(1987 215)"><path d="M0 -149L129 -74.5L129 74.5L0 149L-129 74.5L-129 -74.5Z" stroke="#6A5ACD" fill="none" stroke-width="2"></path></g><g transform="translate(2987 1799)"><path d="M0 -123L106.5 -61.5L106.5 61.5L0 123L-106.5 61.5L-106.5 -61.5Z" stroke="#6A5ACD" fill="none" stroke-width="2"></path></g><g transform="translate(2757 561)"><path d="M0 -74L64.1 -37L64.1 37L0 74L-64.1 37L-64.1 -37Z" stroke="#6A5ACD" fill="none" stroke-width="2"></path></g><g transform="translate(967 885)"><path d="M0 -125L108.3 -62.5L108.3 62.5L0 125L-108.3 62.5L-108.3 -62.5Z" stroke="#6A5ACD" fill="none" stroke-width="2"></path></g><g transform="translate(3804 1908)"><path d="M0 -219L189.7 -109.5L189.7 109.5L0 219L-189.7 109.5L-189.7 -109.5Z" stroke="#6A5ACD" fill="none" stroke-width="2"></path></g><g transform="translate(301 1743)"><path d="M0 -210L181.9 -105L181.9 105L0 210L-181.9 105L-181.9 -105Z" stroke="#6A5ACD" fill="none" stroke-width="2"></path></g><g transform="translate(2376 1941)"><path d="M0 -145L125.6 -72.5L125.6 72.5L0 145L-125.6 72.5L-125.6 -72.5Z" stroke="#6A5ACD" fill="none" stroke-width="2"></path></g><g transform="translate(1901 1052)"><path d="M0 -91L78.8 -45.5L78.8 45.5L0 91L-78.8 45.5L-78.8 -45.5Z" stroke="#6A5ACD" fill="none" stroke-width="2"></path></g></g></svg>